M48
; DRILL file {KiCad (6.0.2)} date jeu. 31 mars 2022 10:51:55
; FORMAT={-:-/ absolute / inch / decimal}
; #@! TF.CreationDate,2022-03-31T10:51:55+02:00
; #@! TF.GenerationSoftware,Kicad,Pcbnew,(6.0.2)
; #@! TF.FileFunction,Plated,1,2,PTH
FMAT,2
INCH
; #@! TA.AperFunction,Plated,PTH,ViaDrill
T1C0.0236
; #@! TA.AperFunction,Plated,PTH,ComponentDrill
T2C0.0394
; #@! TA.AperFunction,Plated,PTH,ComponentDrill
T3C0.1260
%
G90
G05
T1
X2.0374Y-2.2343
X2.0768Y-1.8209
X2.1949Y-2.2047
X2.3228Y-2.0472
X2.5Y-2.0157
X2.5591Y-1.9528
X2.5906Y-2.0571
X2.8346Y-2.1161
X3.061Y-1.5748
X3.1398Y-2.0197
X3.1594Y-1.8209
X3.1791Y-2.1181
X3.5591Y-2.0709
T2
X2.4094Y-1.1417
X2.5094Y-1.1417
X2.6094Y-1.1417
X2.7094Y-1.1417
T3
X1.5748Y-1.1811
X1.5748Y-2.7559
X3.5433Y-1.1811
X3.5433Y-2.7559
T0
M30
