%TF.GenerationSoftware,KiCad,Pcbnew,(6.0.2)*%
%TF.CreationDate,2022-03-18T10:51:15+01:00*%
%TF.ProjectId,stm32l02,73746d33-326c-4303-922e-6b696361645f,rev?*%
%TF.SameCoordinates,Original*%
%TF.FileFunction,Paste,Top*%
%TF.FilePolarity,Positive*%
%FSLAX46Y46*%
G04 Gerber Fmt 4.6, Leading zero omitted, Abs format (unit mm)*
G04 Created by KiCad (PCBNEW (6.0.2)) date 2022-03-18 10:51:15*
%MOMM*%
%LPD*%
G01*
G04 APERTURE LIST*
G04 Aperture macros list*
%AMRoundRect*
0 Rectangle with rounded corners*
0 $1 Rounding radius*
0 $2 $3 $4 $5 $6 $7 $8 $9 X,Y pos of 4 corners*
0 Add a 4 corners polygon primitive as box body*
4,1,4,$2,$3,$4,$5,$6,$7,$8,$9,$2,$3,0*
0 Add four circle primitives for the rounded corners*
1,1,$1+$1,$2,$3*
1,1,$1+$1,$4,$5*
1,1,$1+$1,$6,$7*
1,1,$1+$1,$8,$9*
0 Add four rect primitives between the rounded corners*
20,1,$1+$1,$2,$3,$4,$5,0*
20,1,$1+$1,$4,$5,$6,$7,0*
20,1,$1+$1,$6,$7,$8,$9,0*
20,1,$1+$1,$8,$9,$2,$3,0*%
G04 Aperture macros list end*
%ADD10RoundRect,0.237500X-0.237500X0.287500X-0.237500X-0.287500X0.237500X-0.287500X0.237500X0.287500X0*%
%ADD11RoundRect,0.250000X-0.475000X0.337500X-0.475000X-0.337500X0.475000X-0.337500X0.475000X0.337500X0*%
%ADD12RoundRect,0.250000X0.650000X-0.412500X0.650000X0.412500X-0.650000X0.412500X-0.650000X-0.412500X0*%
%ADD13RoundRect,0.125000X-0.625000X-0.125000X0.625000X-0.125000X0.625000X0.125000X-0.625000X0.125000X0*%
%ADD14RoundRect,0.125000X-0.125000X-0.625000X0.125000X-0.625000X0.125000X0.625000X-0.125000X0.625000X0*%
%ADD15RoundRect,0.250000X0.475000X-0.337500X0.475000X0.337500X-0.475000X0.337500X-0.475000X-0.337500X0*%
%ADD16R,2.400000X0.740000*%
%ADD17RoundRect,0.250000X-0.275000X-0.350000X0.275000X-0.350000X0.275000X0.350000X-0.275000X0.350000X0*%
%ADD18RoundRect,0.250000X-0.450000X0.350000X-0.450000X-0.350000X0.450000X-0.350000X0.450000X0.350000X0*%
%ADD19RoundRect,0.237500X-0.287500X-0.237500X0.287500X-0.237500X0.287500X0.237500X-0.287500X0.237500X0*%
%ADD20RoundRect,0.150000X0.150000X-0.825000X0.150000X0.825000X-0.150000X0.825000X-0.150000X-0.825000X0*%
%ADD21RoundRect,0.250000X-0.650000X0.412500X-0.650000X-0.412500X0.650000X-0.412500X0.650000X0.412500X0*%
%ADD22RoundRect,0.250000X0.350000X0.450000X-0.350000X0.450000X-0.350000X-0.450000X0.350000X-0.450000X0*%
%ADD23R,1.500000X2.000000*%
%ADD24R,3.800000X2.000000*%
G04 APERTURE END LIST*
D10*
%TO.C,D1*%
X73000000Y-50125000D03*
X73000000Y-51875000D03*
%TD*%
D11*
%TO.C,C7*%
X57000000Y-50462500D03*
X57000000Y-52537500D03*
%TD*%
D12*
%TO.C,C4*%
X55700000Y-38162500D03*
X55700000Y-35037500D03*
%TD*%
D13*
%TO.C,U1*%
X60825000Y-47200000D03*
X60825000Y-48000000D03*
X60825000Y-48800000D03*
X60825000Y-49600000D03*
X60825000Y-50400000D03*
X60825000Y-51200000D03*
X60825000Y-52000000D03*
X60825000Y-52800000D03*
D14*
X62200000Y-54175000D03*
X63000000Y-54175000D03*
X63800000Y-54175000D03*
X64600000Y-54175000D03*
X65400000Y-54175000D03*
X66200000Y-54175000D03*
X67000000Y-54175000D03*
X67800000Y-54175000D03*
D13*
X69175000Y-52800000D03*
X69175000Y-52000000D03*
X69175000Y-51200000D03*
X69175000Y-50400000D03*
X69175000Y-49600000D03*
X69175000Y-48800000D03*
X69175000Y-48000000D03*
X69175000Y-47200000D03*
D14*
X67800000Y-45825000D03*
X67000000Y-45825000D03*
X66200000Y-45825000D03*
X65400000Y-45825000D03*
X64600000Y-45825000D03*
X63800000Y-45825000D03*
X63000000Y-45825000D03*
X62200000Y-45825000D03*
%TD*%
D15*
%TO.C,C9*%
X51000000Y-63037500D03*
X51000000Y-60962500D03*
%TD*%
D16*
%TO.C,J1*%
X84050000Y-46190000D03*
X87950000Y-46190000D03*
X84050000Y-47460000D03*
X87950000Y-47460000D03*
X84050000Y-48730000D03*
X87950000Y-48730000D03*
X84050000Y-50000000D03*
X87950000Y-50000000D03*
X84050000Y-51270000D03*
X87950000Y-51270000D03*
X84050000Y-52540000D03*
X87950000Y-52540000D03*
X84050000Y-53810000D03*
X87950000Y-53810000D03*
%TD*%
D17*
%TO.C,L1*%
X48850000Y-50500000D03*
X51150000Y-50500000D03*
%TD*%
D18*
%TO.C,R1*%
X76000000Y-50000000D03*
X76000000Y-52000000D03*
%TD*%
D19*
%TO.C,D2*%
X47625000Y-43000000D03*
X49375000Y-43000000D03*
%TD*%
D15*
%TO.C,C2*%
X59000000Y-44037500D03*
X59000000Y-41962500D03*
%TD*%
D11*
%TO.C,C5*%
X54000000Y-50462500D03*
X54000000Y-52537500D03*
%TD*%
D20*
%TO.C,U3*%
X54095000Y-64475000D03*
X55365000Y-64475000D03*
X56635000Y-64475000D03*
X57905000Y-64475000D03*
X57905000Y-59525000D03*
X56635000Y-59525000D03*
X55365000Y-59525000D03*
X54095000Y-59525000D03*
%TD*%
D11*
%TO.C,C1*%
X74000000Y-55962500D03*
X74000000Y-58037500D03*
%TD*%
D12*
%TO.C,C8*%
X48000000Y-63562500D03*
X48000000Y-60437500D03*
%TD*%
D21*
%TO.C,C6*%
X44400000Y-35037500D03*
X44400000Y-38162500D03*
%TD*%
D11*
%TO.C,C3*%
X71000000Y-55962500D03*
X71000000Y-58037500D03*
%TD*%
D22*
%TO.C,R2*%
X44500000Y-43000000D03*
X42500000Y-43000000D03*
%TD*%
D23*
%TO.C,U2*%
X47700000Y-38150000D03*
X50000000Y-38150000D03*
D24*
X50000000Y-31850000D03*
D23*
X52300000Y-38150000D03*
%TD*%
M02*
