%TF.GenerationSoftware,KiCad,Pcbnew,7.0.10-7.0.10~ubuntu22.04.1*%
%TF.CreationDate,2024-02-29T14:22:19+01:00*%
%TF.ProjectId,tp_micro_tetar_darriet,74705f6d-6963-4726-9f5f-74657461725f,rev?*%
%TF.SameCoordinates,Original*%
%TF.FileFunction,Soldermask,Top*%
%TF.FilePolarity,Negative*%
%FSLAX46Y46*%
G04 Gerber Fmt 4.6, Leading zero omitted, Abs format (unit mm)*
G04 Created by KiCad (PCBNEW 7.0.10-7.0.10~ubuntu22.04.1) date 2024-02-29 14:22:19*
%MOMM*%
%LPD*%
G01*
G04 APERTURE LIST*
G04 Aperture macros list*
%AMRoundRect*
0 Rectangle with rounded corners*
0 $1 Rounding radius*
0 $2 $3 $4 $5 $6 $7 $8 $9 X,Y pos of 4 corners*
0 Add a 4 corners polygon primitive as box body*
4,1,4,$2,$3,$4,$5,$6,$7,$8,$9,$2,$3,0*
0 Add four circle primitives for the rounded corners*
1,1,$1+$1,$2,$3*
1,1,$1+$1,$4,$5*
1,1,$1+$1,$6,$7*
1,1,$1+$1,$8,$9*
0 Add four rect primitives between the rounded corners*
20,1,$1+$1,$2,$3,$4,$5,0*
20,1,$1+$1,$4,$5,$6,$7,0*
20,1,$1+$1,$6,$7,$8,$9,0*
20,1,$1+$1,$8,$9,$2,$3,0*%
G04 Aperture macros list end*
%ADD10RoundRect,0.297619X-0.402381X0.327381X-0.402381X-0.327381X0.402381X-0.327381X0.402381X0.327381X0*%
%ADD11RoundRect,0.300000X0.300000X0.525000X-0.300000X0.525000X-0.300000X-0.525000X0.300000X-0.525000X0*%
%ADD12RoundRect,0.292553X0.394947X0.532447X-0.394947X0.532447X-0.394947X-0.532447X0.394947X-0.532447X0*%
%ADD13RoundRect,0.300000X0.525000X-0.300000X0.525000X0.300000X-0.525000X0.300000X-0.525000X-0.300000X0*%
%ADD14RoundRect,0.200000X0.562500X0.200000X-0.562500X0.200000X-0.562500X-0.200000X0.562500X-0.200000X0*%
%ADD15RoundRect,0.100000X-0.370000X1.200000X-0.370000X-1.200000X0.370000X-1.200000X0.370000X1.200000X0*%
%ADD16RoundRect,0.287500X-0.287500X0.337500X-0.287500X-0.337500X0.287500X-0.337500X0.287500X0.337500X0*%
%ADD17C,6.600000*%
%ADD18RoundRect,0.287500X0.337500X0.287500X-0.337500X0.287500X-0.337500X-0.287500X0.337500X-0.287500X0*%
%ADD19RoundRect,0.279412X0.820588X-0.670588X0.820588X0.670588X-0.820588X0.670588X-0.820588X-0.670588X0*%
%ADD20O,2.200000X1.900000*%
%ADD21RoundRect,0.291667X0.408333X0.508333X-0.408333X0.508333X-0.408333X-0.508333X0.408333X-0.508333X0*%
%ADD22RoundRect,0.291667X-0.408333X-0.508333X0.408333X-0.508333X0.408333X0.508333X-0.408333X0.508333X0*%
%ADD23RoundRect,0.291667X0.508333X-0.408333X0.508333X0.408333X-0.508333X0.408333X-0.508333X-0.408333X0*%
%ADD24RoundRect,0.175000X-0.675000X-0.175000X0.675000X-0.175000X0.675000X0.175000X-0.675000X0.175000X0*%
%ADD25RoundRect,0.175000X-0.175000X-0.675000X0.175000X-0.675000X0.175000X0.675000X-0.175000X0.675000X0*%
%ADD26RoundRect,0.200000X0.875000X0.200000X-0.875000X0.200000X-0.875000X-0.200000X0.875000X-0.200000X0*%
%ADD27RoundRect,0.292553X-0.394947X-0.532447X0.394947X-0.532447X0.394947X0.532447X-0.394947X0.532447X0*%
%ADD28RoundRect,0.292553X0.532447X-0.394947X0.532447X0.394947X-0.532447X0.394947X-0.532447X-0.394947X0*%
%ADD29RoundRect,0.292553X-0.532447X0.394947X-0.532447X-0.394947X0.532447X-0.394947X0.532447X0.394947X0*%
%ADD30RoundRect,0.279412X-0.670588X-0.820588X0.670588X-0.820588X0.670588X0.820588X-0.670588X0.820588X0*%
%ADD31O,1.900000X2.200000*%
G04 APERTURE END LIST*
D10*
%TO.C,L1*%
X63000000Y-66850000D03*
X63000000Y-69150000D03*
%TD*%
D11*
%TO.C,C10*%
X73950000Y-86000000D03*
X72050000Y-86000000D03*
%TD*%
D12*
%TO.C,C5*%
X82037500Y-75000000D03*
X79962500Y-75000000D03*
%TD*%
D13*
%TO.C,C1*%
X68000000Y-50950000D03*
X68000000Y-49050000D03*
%TD*%
D14*
%TO.C,U1*%
X65137500Y-50950000D03*
X65137500Y-50000000D03*
X65137500Y-49050000D03*
X62862500Y-49050000D03*
X62862500Y-50950000D03*
%TD*%
D15*
%TO.C,J1*%
X91810000Y-57050000D03*
X91810000Y-60950000D03*
X90540000Y-57050000D03*
X90540000Y-60950000D03*
X89270000Y-57050000D03*
X89270000Y-60950000D03*
X88000000Y-57050000D03*
X88000000Y-60950000D03*
X86730000Y-57050000D03*
X86730000Y-60950000D03*
X85460000Y-57050000D03*
X85460000Y-60950000D03*
X84190000Y-57050000D03*
X84190000Y-60950000D03*
%TD*%
D16*
%TO.C,D2*%
X57000000Y-53125000D03*
X57000000Y-54875000D03*
%TD*%
D17*
%TO.C,H2*%
X100000000Y-50000000D03*
%TD*%
D18*
%TO.C,D1*%
X83875000Y-72000000D03*
X82125000Y-72000000D03*
%TD*%
D19*
%TO.C,J2*%
X50000000Y-70000000D03*
D20*
X50000000Y-67500000D03*
%TD*%
D17*
%TO.C,H1*%
X50000000Y-50000000D03*
%TD*%
D21*
%TO.C,R2*%
X73000000Y-62000000D03*
X71000000Y-62000000D03*
%TD*%
D22*
%TO.C,R1*%
X87000000Y-72000000D03*
X89000000Y-72000000D03*
%TD*%
D23*
%TO.C,R3*%
X57000000Y-51000000D03*
X57000000Y-49000000D03*
%TD*%
D24*
%TO.C,U2*%
X70825000Y-67200000D03*
X70825000Y-68000000D03*
X70825000Y-68800000D03*
X70825000Y-69600000D03*
X70825000Y-70400000D03*
X70825000Y-71200000D03*
X70825000Y-72000000D03*
X70825000Y-72800000D03*
D25*
X72200000Y-74175000D03*
X73000000Y-74175000D03*
X73800000Y-74175000D03*
X74600000Y-74175000D03*
X75400000Y-74175000D03*
X76200000Y-74175000D03*
X77000000Y-74175000D03*
X77800000Y-74175000D03*
D24*
X79175000Y-72800000D03*
X79175000Y-72000000D03*
X79175000Y-71200000D03*
X79175000Y-70400000D03*
X79175000Y-69600000D03*
X79175000Y-68800000D03*
X79175000Y-68000000D03*
X79175000Y-67200000D03*
D25*
X77800000Y-65825000D03*
X77000000Y-65825000D03*
X76200000Y-65825000D03*
X75400000Y-65825000D03*
X74600000Y-65825000D03*
X73800000Y-65825000D03*
X73000000Y-65825000D03*
X72200000Y-65825000D03*
%TD*%
D26*
%TO.C,U3*%
X75475000Y-81905000D03*
X75475000Y-80635000D03*
X75475000Y-79365000D03*
X75475000Y-78095000D03*
X70525000Y-78095000D03*
X70525000Y-79365000D03*
X70525000Y-80635000D03*
X70525000Y-81905000D03*
%TD*%
D27*
%TO.C,C4*%
X67962500Y-65000000D03*
X70037500Y-65000000D03*
%TD*%
D19*
%TO.C,J4*%
X100000000Y-70000000D03*
D20*
X100000000Y-67500000D03*
%TD*%
D13*
%TO.C,C6*%
X60000000Y-50950000D03*
X60000000Y-49050000D03*
%TD*%
D28*
%TO.C,C3*%
X65000000Y-69037500D03*
X65000000Y-66962500D03*
%TD*%
D29*
%TO.C,C7*%
X65000000Y-70925000D03*
X65000000Y-73000000D03*
%TD*%
D17*
%TO.C,H4*%
X100000000Y-90000000D03*
%TD*%
D29*
%TO.C,C8*%
X67000000Y-70962500D03*
X67000000Y-73037500D03*
%TD*%
D17*
%TO.C,H3*%
X50000000Y-90000000D03*
%TD*%
D12*
%TO.C,C2*%
X82037500Y-77000000D03*
X79962500Y-77000000D03*
%TD*%
%TO.C,C9*%
X74075000Y-84000000D03*
X72000000Y-84000000D03*
%TD*%
D30*
%TO.C,J3*%
X74000000Y-50000000D03*
D31*
X76500000Y-50000000D03*
%TD*%
M02*
