M48
; DRILL file {KiCad 7.0.10-7.0.10~ubuntu22.04.1} date Thu 29 Feb 2024 02:21:59 PM CET
; FORMAT={-:-/ absolute / inch / decimal}
; #@! TF.CreationDate,2024-02-29T14:21:59+01:00
; #@! TF.GenerationSoftware,Kicad,Pcbnew,7.0.10-7.0.10~ubuntu22.04.1
; #@! TF.FileFunction,Plated,1,2,PTH
FMAT,2
INCH
; #@! TA.AperFunction,Plated,PTH,ViaDrill
T1C0.0236
; #@! TA.AperFunction,Plated,PTH,ComponentDrill
T2C0.0394
; #@! TA.AperFunction,Plated,PTH,ComponentDrill
T3C0.1260
%
G90
G05
T1
X2.0866Y-3.0197
X2.2441Y-1.874
X2.3622Y-1.878
X2.622Y-2.6339
X2.6378Y-2.7205
X2.6772Y-1.8819
X2.7008Y-3.1772
X2.7362Y-2.4409
X2.7559Y-2.9567
X2.7677Y-3.3465
X2.8858Y-2.7717
X2.8858Y-2.8425
X3.0709Y-2.9921
X3.2559Y-2.4016
X3.315Y-2.1693
X3.3661Y-2.4803
X3.4646Y-2.1575
X3.563Y-2.8346
T2
X1.9685Y-2.6575
X1.9685Y-2.7559
X2.9134Y-1.9685
X3.0118Y-1.9685
X3.937Y-2.6575
X3.937Y-2.7559
T3
X1.9685Y-1.9685
X1.9685Y-3.5433
X3.937Y-1.9685
X3.937Y-3.5433
M30
