%TF.GenerationSoftware,KiCad,Pcbnew,7.0.10-7.0.10~ubuntu22.04.1*%
%TF.CreationDate,2024-02-29T14:22:19+01:00*%
%TF.ProjectId,tp_micro_tetar_darriet,74705f6d-6963-4726-9f5f-74657461725f,rev?*%
%TF.SameCoordinates,Original*%
%TF.FileFunction,Soldermask,Bot*%
%TF.FilePolarity,Negative*%
%FSLAX46Y46*%
G04 Gerber Fmt 4.6, Leading zero omitted, Abs format (unit mm)*
G04 Created by KiCad (PCBNEW 7.0.10-7.0.10~ubuntu22.04.1) date 2024-02-29 14:22:19*
%MOMM*%
%LPD*%
G01*
G04 APERTURE LIST*
G04 Aperture macros list*
%AMRoundRect*
0 Rectangle with rounded corners*
0 $1 Rounding radius*
0 $2 $3 $4 $5 $6 $7 $8 $9 X,Y pos of 4 corners*
0 Add a 4 corners polygon primitive as box body*
4,1,4,$2,$3,$4,$5,$6,$7,$8,$9,$2,$3,0*
0 Add four circle primitives for the rounded corners*
1,1,$1+$1,$2,$3*
1,1,$1+$1,$4,$5*
1,1,$1+$1,$6,$7*
1,1,$1+$1,$8,$9*
0 Add four rect primitives between the rounded corners*
20,1,$1+$1,$2,$3,$4,$5,0*
20,1,$1+$1,$4,$5,$6,$7,0*
20,1,$1+$1,$6,$7,$8,$9,0*
20,1,$1+$1,$8,$9,$2,$3,0*%
G04 Aperture macros list end*
%ADD10C,0.300000*%
%ADD11C,6.600000*%
%ADD12RoundRect,0.279412X0.820588X-0.670588X0.820588X0.670588X-0.820588X0.670588X-0.820588X-0.670588X0*%
%ADD13O,2.200000X1.900000*%
%ADD14RoundRect,0.279412X-0.670588X-0.820588X0.670588X-0.820588X0.670588X0.820588X-0.670588X0.820588X0*%
%ADD15O,1.900000X2.200000*%
G04 APERTURE END LIST*
D10*
X78178571Y-67678328D02*
X78892857Y-67678328D01*
X78892857Y-67678328D02*
X78892857Y-66178328D01*
X77178571Y-66892614D02*
X77678571Y-66892614D01*
X77678571Y-67678328D02*
X77678571Y-66178328D01*
X77678571Y-66178328D02*
X76964285Y-66178328D01*
X76392857Y-67678328D02*
X76392857Y-66178328D01*
X75749999Y-67249757D02*
X75035714Y-67249757D01*
X75892856Y-67678328D02*
X75392856Y-66178328D01*
X75392856Y-66178328D02*
X74892856Y-67678328D01*
X73535714Y-67535471D02*
X73607142Y-67606900D01*
X73607142Y-67606900D02*
X73821428Y-67678328D01*
X73821428Y-67678328D02*
X73964285Y-67678328D01*
X73964285Y-67678328D02*
X74178571Y-67606900D01*
X74178571Y-67606900D02*
X74321428Y-67464042D01*
X74321428Y-67464042D02*
X74392857Y-67321185D01*
X74392857Y-67321185D02*
X74464285Y-67035471D01*
X74464285Y-67035471D02*
X74464285Y-66821185D01*
X74464285Y-66821185D02*
X74392857Y-66535471D01*
X74392857Y-66535471D02*
X74321428Y-66392614D01*
X74321428Y-66392614D02*
X74178571Y-66249757D01*
X74178571Y-66249757D02*
X73964285Y-66178328D01*
X73964285Y-66178328D02*
X73821428Y-66178328D01*
X73821428Y-66178328D02*
X73607142Y-66249757D01*
X73607142Y-66249757D02*
X73535714Y-66321185D01*
X72892857Y-67678328D02*
X72892857Y-66178328D01*
X72035714Y-67678328D02*
X72678571Y-66821185D01*
X72035714Y-66178328D02*
X72892857Y-67035471D01*
D11*
%TO.C,H2*%
X100000000Y-50000000D03*
%TD*%
D12*
%TO.C,J2*%
X50000000Y-70000000D03*
D13*
X50000000Y-67500000D03*
%TD*%
D11*
%TO.C,H1*%
X50000000Y-50000000D03*
%TD*%
D12*
%TO.C,J4*%
X100000000Y-70000000D03*
D13*
X100000000Y-67500000D03*
%TD*%
D11*
%TO.C,H4*%
X100000000Y-90000000D03*
%TD*%
%TO.C,H3*%
X50000000Y-90000000D03*
%TD*%
D14*
%TO.C,J3*%
X74000000Y-50000000D03*
D15*
X76500000Y-50000000D03*
%TD*%
M02*
